<?xml version="1.0" encoding="UTF-8"?>
<svg width="24px" height="24px" viewBox="0 0 24 24" version="1.1" xmlns="http://www.w3.org/2000/svg" xmlns:xlink="http://www.w3.org/1999/xlink">
    <!-- Generator: Sketch 52.5 (67469) - http://www.bohemiancoding.com/sketch -->
    <title>btn_edit@2x</title>
    <desc>Created with Sketch.</desc>
    <g id="修改" stroke="none" stroke-width="1" fill="none" fill-rule="evenodd">
        <g transform="translate(-171.000000, -323.000000)" id="Group-9">
            <g transform="translate(16.000000, 178.000000)">
                <g id="Group-7">
                    <g id="Group-6">
                        <g id="Group-5" transform="translate(152.000000, 142.000000)">
                            <g id="btn_edit" transform="translate(15.000000, 15.000000) rotate(-360.000000) translate(-15.000000, -15.000000) ">
                                <g id="Group-3-Copy" transform="translate(0.000000, 0.000000)" fill="#00A862">
                                    <g id="Group-Copy-2" transform="translate(15.000000, 15.000000) rotate(-345.000000) translate(-15.000000, -15.000000) translate(3.000000, 3.000000)">
                                        <g id="Float-Copy">
                                            <circle id="Circle" cx="12" cy="12" r="12"></circle>
                                        </g>
                                    </g>
                                </g>
                                <g id="Group-3" transform="translate(9.000000, 9.000000)" fill="#FFFFFF">
                                    <path d="M0.984495823,8.20952917 L3.79097898,11.0160123 L10.2063691,4.60062224 L7.39988591,1.79413908 L0.984495823,8.20952917 Z M0.000466666667,12.0008415 L3.40216746,11.4040238 L0.590084137,8.5919405 L0.000466666667,12.0008415 Z M11.8216169,2.98537438 L10.6367818,4.16940946 L7.83109869,1.36292631 L9.01513377,0.178891225 C9.41674567,-0.223520698 9.81915759,0.178891225 9.81915759,0.178891225 L11.8216169,2.18135056 C11.8216169,2.18135056 12.2240288,2.58296246 11.8216169,2.98537438 Z" id="Fill-1"></path>
                                </g>
                            </g>
                        </g>
                    </g>
                </g>
            </g>
        </g>
    </g>
</svg>