<?xml version="1.0" encoding="UTF-8"?>
<svg width="14px" height="14px" viewBox="0 0 14 14" version="1.1" xmlns="http://www.w3.org/2000/svg" xmlns:xlink="http://www.w3.org/1999/xlink">
    <!-- Generator: Sketch 56.3 (81716) - https://sketch.com -->
    <title>Shape</title>
    <desc>Created with Sketch.</desc>
    <g id="页面-1" stroke="none" stroke-width="1" fill="none" fill-rule="evenodd">
        <g id="星巴克授权页" transform="translate(-300.000000, -224.000000)" fill="#000000">
            <path d="M308.060619,230.999535 L313.779177,225.280112 C314.054515,224.984632 314.04639,224.524178 313.7608,224.238595 C313.47521,223.953011 313.014746,223.944887 312.719259,224.220218 L306.9997,229.938642 L301.280142,224.219219 C300.986901,223.926537 300.511912,223.926985 300.219224,224.220218 C299.926535,224.513452 299.926983,224.98843 300.220224,225.281112 L305.940782,230.999535 L300.221224,236.717959 C299.945886,237.013439 299.95401,237.473892 300.2396,237.759476 C300.52519,238.045059 300.985655,238.053183 301.281142,237.777852 L307.0007,232.061428 L312.720259,237.779852 C312.860612,237.920779 313.05132,238 313.250218,238 C313.449116,238 313.639823,237.920779 313.780177,237.779852 C313.920922,237.6392 314,237.448381 314,237.249405 C314,237.05043 313.920922,236.859611 313.780177,236.718959 L308.060619,230.999535 Z" id="Shape"></path>
        </g>
    </g>
</svg>