<?xml version="1.0" encoding="utf-8"?>
<!-- Generator: Adobe Illustrator 23.0.2, SVG Export Plug-In . SVG Version: 6.00 Build 0)  -->
<svg version="1.1" id="图层_1" xmlns="http://www.w3.org/2000/svg" xmlns:xlink="http://www.w3.org/1999/xlink" x="0px" y="0px"
	 viewBox="0 0 100 100" style="enable-background:new 0 0 100 100;" xml:space="preserve">
<style type="text/css">
	.st0{fill:#FEFEFE;}
	.st1{fill:#00653E;}
</style>
<g>
	<circle class="st0" cx="50" cy="50" r="50"/>
	<path class="st1" d="M51.1,44.1c-0.6,0-0.8-0.2-1.2-0.2c-0.4,0-1.2,0.3-1.4,0.6c0,0.1,0.1,0.3,0.2,0.4c0.9,0.1,1.3,0.6,2.4,0.6
		c1,0,1.5-0.5,2.4-0.6c0.1-0.1,0.2-0.2,0.2-0.4c-0.2-0.3-1-0.6-1.4-0.6C51.9,43.9,51.8,44.1,51.1,44.1z"/>
	<path class="st1" d="M47.4,47.2c0,0-0.3,0.1-0.3,0.3c1.1,0.8,1.8,2.7,4.1,2.7c2.2,0,3-1.8,4-2.7c-0.1-0.2-0.3-0.3-0.3-0.3
		s-1.4,0.3-3.7,0.3C48.8,47.5,47.4,47.2,47.4,47.2z"/>
	<path class="st1" d="M51.1,18c0,0-5.1,3.8-5.3,4c-0.2,0.1-0.1,0.4,0.2,0.3c0.4-0.1,2.6-0.4,5.1-0.4c2.5,0,4.7,0.4,5.1,0.4
		c0.3,0,0.4-0.2,0.2-0.3C56.3,21.8,51.1,18,51.1,18z"/>
	<path class="st1" d="M86.8,49.3c-0.6-1.4-1.3-2.8-2-4.2c6.8-1.2,9.6,3.7,15.2,4.1c0-1.3-0.1-2.6-0.2-3.9c-5.2,0.6-9.9-5.6-16.8-3.2
		c-2.6-3.9-6-7.2-9.9-9.9c3.8-1.5,8.3-1.2,12.2,1.3c0.6-3.6,2.6-6.7,5.4-8.6c0.4-0.3,0.8,0,0.7,0.4c-0.5,7,3.2,13.1,8.2,18.5
		C96.6,19.1,75.5,0,50,0C22.4,0,0,22.4,0,50c0,0.1,0,0.2,0,0.3c0-0.4,0-0.8,0-1.2c7.1,1,9.7-5.4,17.4-4c-0.8,1.3-1.4,2.7-2,4.2
		c-6.1-0.7-8.6,4.8-15.3,4c0.1,1.2,0.2,2.4,0.4,3.6c5.7,0.9,7.8-4.1,13.7-3.9c-0.4,1.2-0.6,2.5-0.9,3.8c-4.9,0-6.8,4.4-12.2,3.8
		c0.3,1.4,0.6,2.7,1.1,4.1C6.4,65,7.9,60.9,12.8,61c0,0.7-0.1,1.4-0.1,2.1c0,0.4,0,0.8,0,1.2c-4.2,0-5.6,3.7-9.5,3.6
		c0.5,1.3,1.1,2.7,1.7,3.9c2.7-0.3,3.8-3.8,8.1-3.5c0.1,0.9,0.3,1.9,0.5,2.8c-3.7-0.3-4.6,3-7.2,3.5c0.7,1.2,1.4,2.4,2.2,3.6
		c1.5-1,3-3.3,5.9-3.5c-0.3-1-0.6-1.9-0.8-2.9c2.7,0,5.9-1.1,8.5-3.4c-0.9-4.8,6.7-9.6,6.7-13.1c0-3.8-2-5.9-2-11
		c0-3.8,1.9-7.9,4.7-10.7c0.5-0.5,1.1-1,1.8-1.4c-2.6,3.2-4.6,6.9-4.6,11.3c0,4.8,2.3,7.4,2.3,11.8c0,4.4-6.6,8.3-6.6,12.9
		c0,1.8,0.6,3.6,2.5,7c-3,2.9-6.8,4.5-9.3,4.5c-0.8,0-1.2-0.2-1.5-0.9c-0.2-0.5-0.5-1.1-0.7-1.6c-2.6,0.1-3.8,2.3-5.2,3.3
		c0.8,1.1,1.7,2.1,2.6,3.1c1-1.1,2.3-2.7,4.1-3.2c0.3,0.7,0.7,1.3,1.1,2c-1.6,0.4-2.7,1.9-3.5,3c1,1,2,1.9,3,2.8
		c0.7-0.9,1.6-2,2.6-2.7c0.4,0.6,0.9,1.1,1.3,1.6c-0.9,0.6-1.6,1.6-2.2,2.4c1.2,0.9,2.4,1.8,3.6,2.6c1-4.9,7.6-8.4,5.7-14.1
		c0.6,1,1.4,2.4,1.4,3.9c0,4.1-4.3,7.4-4.9,11.5c1,0.6,1.9,1.1,2.9,1.6c0.5-4.6,5-9.5,5-13.2c0-4.3-5.7-8.6-5.7-13.7
		c0-5.1,6.6-8.6,6.6-13s-2.8-7-2.8-12.7c0-4.2,2-8.4,5.1-11.1c0.6-0.5,1.1-0.9,1.8-1.2c-2.9,3.5-4.6,6.6-4.6,11.4
		c0,5.4,3.2,8.3,3.2,13.6c0,5.3-6.5,8.2-6.5,13.1c0,4.9,6,9,6,14.1c0,4.4-4.9,8.8-5.3,14c1.1,0.5,2.3,0.9,3.5,1.3
		c-0.2-5.3,5.3-10.7,5.3-15c0-4.9-6.2-9.1-6.2-14.4c0-5.3,6.4-7.7,6.4-13.2c0-5.4-3.9-8.4-3.9-14.4c0-4.7,2.3-8.9,5.8-11.5
		c0.1-0.1,0.1-0.1,0.2-0.2c0.3-0.2,0.6,0,0.4,0.3c-2.4,3-3.7,6-3.7,10.4c0,5.5,4.5,9.9,4.5,15.2c0,6.3-6,8.1-6,13.2
		c0,5.1,6.4,9.2,6.4,14.7c0,4.9-5.6,10.2-5.1,15.8c1.2,0.3,2.5,0.6,3.7,0.8c-0.7-6.9,4.9-11.9,4.9-16.5c0-5.2-6.7-9.7-6.7-14.8
		c0-4.7,4.8-6.3,5.4-11.1c0.1-0.7,0.6-1.2,1.4-1c1,0.2,2.2,0.8,4.2,0.8c2,0,3.2-0.6,4.2-0.8c0.7-0.1,1.3,0.4,1.4,1
		c0.6,4.9,5.4,6.4,5.4,11.1c0,5-6.7,9.6-6.7,14.8c0,4.5,5.3,9.4,5,16.1c1.3-0.3,2.5-0.6,3.7-0.9c0.1-5.4-5.2-10.5-5.2-15.2
		c0-5.5,6.4-9.6,6.4-14.7c0-5.1-6-6.9-6-13.2c0-5.3,4.5-9.8,4.5-15.2c0-4.5-1.3-7.5-3.7-10.4c-0.2-0.3,0-0.6,0.4-0.3
		c0.1,0.1,0.1,0.1,0.2,0.2c3.4,2.6,5.8,6.8,5.8,11.5c0,6-3.9,9-3.9,14.4c0,5.4,6.4,7.9,6.4,13.2c0,5.3-6.2,9.5-6.2,14.4
		c0,4.1,5,9.2,5.3,14.2c1.1-0.4,2.3-0.9,3.4-1.4c-0.9-4.8-5.2-8.9-5.2-13.1c0-5,6-9.2,6-14.1c0-4.9-6.5-7.8-6.5-13.1
		c0-5.3,3.2-8.2,3.2-13.6c0-4.8-1.7-7.9-4.6-11.4c0.7,0.3,1.2,0.7,1.7,1.2c3.1,2.7,5.1,6.9,5.1,11.1c0,5.7-2.8,8.3-2.8,12.7
		s6.6,8,6.6,13c0,5.1-5.7,9.4-5.7,13.7c0,3.4,3.9,7.9,4.9,12.1c1-0.5,1.9-1.1,2.8-1.7c-1.2-3.5-4.7-6.6-4.7-10.3
		c0-1.6,0.7-2.9,1.4-3.9c-1.7,5.3,3.7,8.6,5.4,12.8c1.1-0.8,2.2-1.6,3.2-2.5c-0.4-0.5-0.9-1-1.4-1.3c0.5-0.5,0.9-1.1,1.3-1.6
		c0.6,0.4,1.2,0.9,1.7,1.5c1-0.9,2-1.9,2.9-2.9c-0.7-0.8-1.5-1.5-2.5-1.7c0.4-0.7,0.8-1.3,1.1-2c1.2,0.3,2.2,1.1,3,1.9
		c0.8-1,1.6-2,2.4-3c-1-1-2.1-2-3.9-2.1c-0.2,0.6-0.5,1.1-0.7,1.6c-0.3,0.6-0.7,0.9-1.5,0.9c-2.5,0-6.4-1.6-9.3-4.5
		c1.9-3.5,2.5-5.2,2.5-7c0-4.6-6.6-8.4-6.6-12.9c0-4.5,2.3-7,2.3-11.8c0-4.3-2-8.1-4.6-11.3c0.6,0.4,1.2,0.8,1.8,1.4
		c2.8,2.8,4.7,6.9,4.7,10.7c0,5.1-2,7.2-2,11c0,3.5,7.5,8.4,6.7,13.1c2.6,2.4,5.8,3.4,8.5,3.4c-0.2,1-0.5,2-0.8,2.9
		c2,0.1,3.3,1.3,4.5,2.3c0.7-1.1,1.3-2.1,1.9-3.2c-1.5-1.1-2.7-2.8-5.4-2.6c0.2-0.9,0.4-1.8,0.5-2.8c3.2-0.2,4.6,1.6,6.2,2.7
		c0.5-1.2,1-2.3,1.5-3.6c-2.5-0.9-4.1-3.3-7.4-3.3c0-0.4,0-0.8,0-1.2c0-0.7,0-1.4-0.1-2.1c4-0.1,5.7,2.6,8.5,3.4
		c0.4-1.3,0.7-2.6,1-3.9c-3.8-0.6-5.8-3.8-10-3.8c-0.2-1.3-0.5-2.6-0.9-3.8c5.1-0.2,7.3,3.4,11.5,3.9c0.2-1.2,0.3-2.4,0.4-3.6
		C94.8,52.8,92.2,48.7,86.8,49.3z M19.3,42.1c-7.4-2.5-12.2,4.7-17.8,3c5.5-5.7,10-12.3,9.4-19.8c0-0.4,0.4-0.7,0.8-0.4
		c2.8,1.9,4.8,5.1,5.4,8.6c3.9-2.5,8.5-2.8,12.2-1.3C25.3,34.9,21.9,38.2,19.3,42.1z M60.9,33.7c0.1,0.3,0,0.4-0.3,0.3
		c-0.8-0.4-1.8-0.6-2.9-0.6c-1.9,0-3.6,0.7-4.7,1.9c-0.6,2-0.6,4.3,0.2,6c1.1-0.1,1-2.1,2-2.1c0.8,0,1.1,0.5,2.5,0.5
		c1.2,0,1.7-0.3,2.2-0.7c1.1,0.1,1.3,1.1,1.3,2.3c0,5.2-4.9,12.4-10,12.4c-5.2,0-10-7.2-10-12.4c0-1.2,0.2-2.2,1.2-2.2
		c0.9,0,1,0.6,2.3,0.6c1.3,0,1.9-0.5,2.7-0.5c0.8,0,1.1,0.6,1.9,0.8c0.5-1.2,0.5-3.3,0-4.7c-1-1.2-2.7-1.9-4.6-1.9
		c-1.1,0-2,0.2-2.9,0.6c-0.3,0.1-0.4,0-0.3-0.3c1-3.4,5-6.1,9.8-6.1C55.9,27.6,59.9,30.3,60.9,33.7z M60.8,36.3
		c0,0.4-0.1,0.8-0.6,1.2c-0.9-1-2.7-0.9-4.8-0.2c-0.1-0.3-0.1-0.6,0-0.9c0.8-0.9,2.2-1.3,3.3-1.3C60.1,35.1,60.8,35.6,60.8,36.3z
		 M41.5,36.3c0-0.7,0.7-1.1,2.1-1.1c1.9,0,3.9,1.2,3.8,2.2c-2.2-0.8-4.3-0.8-5.3,0.1C41.6,37.1,41.5,36.7,41.5,36.3z M69.1,29
		c-0.2,0.4-0.5,0.5-0.9,0.3c-5.1-2.5-10.9-3.9-17-3.9c-6.1,0-11.9,1.4-17,3.9c-0.4,0.2-0.7,0.1-0.9-0.3c-1.5-3.3-3.5-6.3-5.7-9.1
		c3.8,0.3,7,1.5,9.6,3.6c-1.1-3.1-2.5-5.9-4.3-8.5c4.8,0.5,8.8,2.2,11.7,5.2l2.3-5.9l-5.1-4.4l6.8-0.5l2.7-6.2l2.7,6.2l6.8,0.5
		l-5.1,4.4l2.3,5.9c2.9-2.9,6.9-4.7,11.7-5.2c-1.8,2.6-3.2,5.4-4.3,8.5c2.6-2.1,5.9-3.4,9.6-3.6C72.5,22.7,70.6,25.7,69.1,29z"/>
</g>
</svg>
