<?xml version="1.0" encoding="UTF-8"?>
<svg width="1070px" height="1022px" viewBox="0 0 1070 1022" version="1.1" xmlns="http://www.w3.org/2000/svg" xmlns:xlink="http://www.w3.org/1999/xlink">
    <!-- Generator: Sketch 49.2 (51160) - http://www.bohemiancoding.com/sketch -->
    <title>pin</title>
    <desc>Created with Sketch.</desc>
    <defs></defs>
    <g id="Page-1" stroke="none" stroke-width="1" fill="none" fill-rule="evenodd">
        <g id="pin" fill="#00AF66" fill-rule="nonzero">
            <path d="M518.649351,861.755844 C518.649351,861.755844 835.158442,590.462338 835.158442,308.52987 C832.498701,138.306494 691.532468,0 518.649351,0 C345.766234,0 202.14026,138.306494 202.14026,308.52987 C202.14026,601.101299 518.649351,861.755844 518.649351,861.755844 Z M345.766234,316.509091 C345.766234,220.758442 422.898702,143.625974 518.649351,143.625974 C614.4,143.625974 691.532468,220.758442 691.532468,316.509091 C691.532468,412.25974 614.4,489.392208 518.649351,489.392208 C422.898702,489.392208 345.766234,409.6 345.766234,316.509091 Z" id="Shape"></path>
            <path d="M768.664935,694.192208 C747.387013,720.789611 728.768831,747.387013 707.490909,768.664935 C928.249351,781.963636 976.124675,827.179221 986.763636,851.116883 C976.124675,877.714286 827.17922,941.548052 531.948052,941.548052 C236.716883,944.207792 87.771429,877.714286 79.792208,853.776623 C87.771429,832.498701 122.348052,789.942857 324.488312,773.984416 C305.87013,752.706494 284.592208,726.109091 263.314286,699.511688 C98.41039,718.12987 0,758.025974 0,851.116883 C0,986.763636 335.127273,1021.34026 534.607792,1021.34026 C734.088311,1021.34026 1069.21558,984.103896 1069.21558,851.116883 C1069.21558,752.706493 946.867532,710.150649 768.664935,694.192208 Z" id="Shape"></path>
        </g>
    </g>
</svg>